<mxfile modified="2022-02-23T18:10:40.435Z" host="app.diagrams.net" agent="5.0 (Windows NT 10.0; Win64; x64) AppleWebKit/537.36 (KHTML, like Gecko) Chrome/98.0.4758.102 Safari/537.36" etag="sfdZWb8t5j0so81KdPAl" version="16.6.3" type="github">
  <diagram id="Ht1M8jgEwFfnCIfOTk4-" name="Page-1">
    <mxGraphModel dx="1497" dy="827" grid="1" gridSize="10" guides="1" tooltips="1" connect="1" arrows="1" fold="1" page="1" pageScale="1" pageWidth="827" pageHeight="1169" math="0" shadow="0">
      <root>
        <mxCell id="0" />
        <mxCell id="1" parent="0" />
        <mxCell id="CtNg6Ad5vOaN8CQnMdeP-4" value="AWS Cloud" style="points=[[0,0],[0.25,0],[0.5,0],[0.75,0],[1,0],[1,0.25],[1,0.5],[1,0.75],[1,1],[0.75,1],[0.5,1],[0.25,1],[0,1],[0,0.75],[0,0.5],[0,0.25]];outlineConnect=0;gradientColor=none;html=1;whiteSpace=wrap;fontSize=12;fontStyle=0;container=1;pointerEvents=0;collapsible=0;recursiveResize=0;shape=mxgraph.aws4.group;grIcon=mxgraph.aws4.group_aws_cloud_alt;strokeColor=#232F3E;fillColor=none;verticalAlign=top;align=left;spacingLeft=30;fontColor=#232F3E;dashed=0;" vertex="1" parent="1">
          <mxGeometry x="40" y="220" width="740" height="620" as="geometry" />
        </mxCell>
        <mxCell id="CtNg6Ad5vOaN8CQnMdeP-5" value="Region" style="points=[[0,0],[0.25,0],[0.5,0],[0.75,0],[1,0],[1,0.25],[1,0.5],[1,0.75],[1,1],[0.75,1],[0.5,1],[0.25,1],[0,1],[0,0.75],[0,0.5],[0,0.25]];outlineConnect=0;gradientColor=none;html=1;whiteSpace=wrap;fontSize=12;fontStyle=0;container=1;pointerEvents=0;collapsible=0;recursiveResize=0;shape=mxgraph.aws4.group;grIcon=mxgraph.aws4.group_region;strokeColor=#147EBA;fillColor=none;verticalAlign=top;align=left;spacingLeft=30;fontColor=#147EBA;dashed=1;" vertex="1" parent="1">
          <mxGeometry x="60" y="260" width="700" height="550" as="geometry" />
        </mxCell>
        <mxCell id="CtNg6Ad5vOaN8CQnMdeP-6" value="VPC" style="points=[[0,0],[0.25,0],[0.5,0],[0.75,0],[1,0],[1,0.25],[1,0.5],[1,0.75],[1,1],[0.75,1],[0.5,1],[0.25,1],[0,1],[0,0.75],[0,0.5],[0,0.25]];outlineConnect=0;gradientColor=none;html=1;whiteSpace=wrap;fontSize=12;fontStyle=0;container=1;pointerEvents=0;collapsible=0;recursiveResize=0;shape=mxgraph.aws4.group;grIcon=mxgraph.aws4.group_vpc;strokeColor=#248814;fillColor=none;verticalAlign=top;align=left;spacingLeft=30;fontColor=#AAB7B8;dashed=0;" vertex="1" parent="CtNg6Ad5vOaN8CQnMdeP-5">
          <mxGeometry x="30" y="40" width="230" height="480" as="geometry" />
        </mxCell>
        <mxCell id="CtNg6Ad5vOaN8CQnMdeP-8" value="Public subnet" style="points=[[0,0],[0.25,0],[0.5,0],[0.75,0],[1,0],[1,0.25],[1,0.5],[1,0.75],[1,1],[0.75,1],[0.5,1],[0.25,1],[0,1],[0,0.75],[0,0.5],[0,0.25]];outlineConnect=0;gradientColor=none;html=1;whiteSpace=wrap;fontSize=12;fontStyle=0;container=1;pointerEvents=0;collapsible=0;recursiveResize=0;shape=mxgraph.aws4.group;grIcon=mxgraph.aws4.group_security_group;grStroke=0;strokeColor=#248814;fillColor=#E9F3E6;verticalAlign=top;align=left;spacingLeft=30;fontColor=#248814;dashed=0;" vertex="1" parent="CtNg6Ad5vOaN8CQnMdeP-6">
          <mxGeometry x="15" y="40" width="200.67000000000002" height="180" as="geometry" />
        </mxCell>
        <mxCell id="CtNg6Ad5vOaN8CQnMdeP-13" value="" style="sketch=0;points=[[0,0,0],[0.25,0,0],[0.5,0,0],[0.75,0,0],[1,0,0],[0,1,0],[0.25,1,0],[0.5,1,0],[0.75,1,0],[1,1,0],[0,0.25,0],[0,0.5,0],[0,0.75,0],[1,0.25,0],[1,0.5,0],[1,0.75,0]];outlineConnect=0;fontColor=#232F3E;gradientColor=#F78E04;gradientDirection=north;fillColor=#D05C17;strokeColor=#ffffff;dashed=0;verticalLabelPosition=bottom;verticalAlign=top;align=center;html=1;fontSize=12;fontStyle=0;aspect=fixed;shape=mxgraph.aws4.resourceIcon;resIcon=mxgraph.aws4.compute;" vertex="1" parent="CtNg6Ad5vOaN8CQnMdeP-8">
          <mxGeometry x="35" y="70" width="40" height="40" as="geometry" />
        </mxCell>
        <mxCell id="CtNg6Ad5vOaN8CQnMdeP-18" value="&lt;font style=&quot;vertical-align: inherit&quot;&gt;&lt;font style=&quot;vertical-align: inherit&quot;&gt;&lt;font style=&quot;vertical-align: inherit&quot;&gt;&lt;font style=&quot;vertical-align: inherit&quot;&gt;VPN Server 1&lt;/font&gt;&lt;/font&gt;&lt;/font&gt;&lt;/font&gt;" style="text;html=1;resizable=0;autosize=1;align=center;verticalAlign=middle;points=[];fillColor=none;strokeColor=none;rounded=0;" vertex="1" parent="CtNg6Ad5vOaN8CQnMdeP-8">
          <mxGeometry x="10" y="50" width="90" height="20" as="geometry" />
        </mxCell>
        <mxCell id="CtNg6Ad5vOaN8CQnMdeP-24" value="" style="sketch=0;outlineConnect=0;fontColor=#232F3E;gradientColor=none;fillColor=#4D27AA;strokeColor=none;dashed=0;verticalLabelPosition=bottom;verticalAlign=top;align=center;html=1;fontSize=12;fontStyle=0;aspect=fixed;pointerEvents=1;shape=mxgraph.aws4.route_table;" vertex="1" parent="CtNg6Ad5vOaN8CQnMdeP-8">
          <mxGeometry x="135" y="100" width="51.33" height="50" as="geometry" />
        </mxCell>
        <mxCell id="CtNg6Ad5vOaN8CQnMdeP-27" value="&lt;font style=&quot;vertical-align: inherit&quot;&gt;&lt;font style=&quot;vertical-align: inherit&quot;&gt;&lt;font style=&quot;vertical-align: inherit&quot;&gt;&lt;font style=&quot;vertical-align: inherit&quot;&gt;RouteTable1&lt;/font&gt;&lt;/font&gt;&lt;/font&gt;&lt;/font&gt;" style="text;html=1;resizable=0;autosize=1;align=center;verticalAlign=middle;points=[];fillColor=none;strokeColor=none;rounded=0;" vertex="1" parent="CtNg6Ad5vOaN8CQnMdeP-8">
          <mxGeometry x="120.67000000000002" y="150" width="80" height="20" as="geometry" />
        </mxCell>
        <mxCell id="CtNg6Ad5vOaN8CQnMdeP-31" value="" style="edgeStyle=orthogonalEdgeStyle;html=1;endArrow=openThin;elbow=vertical;startArrow=none;endFill=0;strokeColor=#545B64;rounded=0;exitX=1;exitY=0.5;exitDx=0;exitDy=0;exitPerimeter=0;" edge="1" parent="CtNg6Ad5vOaN8CQnMdeP-8" source="CtNg6Ad5vOaN8CQnMdeP-13" target="CtNg6Ad5vOaN8CQnMdeP-24">
          <mxGeometry width="100" relative="1" as="geometry">
            <mxPoint x="165" y="30" as="sourcePoint" />
            <mxPoint x="265" y="30" as="targetPoint" />
          </mxGeometry>
        </mxCell>
        <mxCell id="CtNg6Ad5vOaN8CQnMdeP-35" value="CIDR:10.1.0.0/20" style="text;html=1;resizable=0;autosize=1;align=center;verticalAlign=middle;points=[];fillColor=none;strokeColor=none;rounded=0;" vertex="1" parent="CtNg6Ad5vOaN8CQnMdeP-8">
          <mxGeometry x="25" y="20" width="110" height="20" as="geometry" />
        </mxCell>
        <mxCell id="CtNg6Ad5vOaN8CQnMdeP-9" value="Private subnet" style="points=[[0,0],[0.25,0],[0.5,0],[0.75,0],[1,0],[1,0.25],[1,0.5],[1,0.75],[1,1],[0.75,1],[0.5,1],[0.25,1],[0,1],[0,0.75],[0,0.5],[0,0.25]];outlineConnect=0;gradientColor=none;html=1;whiteSpace=wrap;fontSize=12;fontStyle=0;container=1;pointerEvents=0;collapsible=0;recursiveResize=0;shape=mxgraph.aws4.group;grIcon=mxgraph.aws4.group_security_group;grStroke=0;strokeColor=#147EBA;fillColor=#E6F2F8;verticalAlign=top;align=left;spacingLeft=30;fontColor=#147EBA;dashed=0;" vertex="1" parent="CtNg6Ad5vOaN8CQnMdeP-6">
          <mxGeometry x="15" y="240" width="205" height="200" as="geometry" />
        </mxCell>
        <mxCell id="CtNg6Ad5vOaN8CQnMdeP-20" value="" style="sketch=0;points=[[0,0,0],[0.25,0,0],[0.5,0,0],[0.75,0,0],[1,0,0],[0,1,0],[0.25,1,0],[0.5,1,0],[0.75,1,0],[1,1,0],[0,0.25,0],[0,0.5,0],[0,0.75,0],[1,0.25,0],[1,0.5,0],[1,0.75,0]];outlineConnect=0;fontColor=#232F3E;gradientColor=#F78E04;gradientDirection=north;fillColor=#D05C17;strokeColor=#ffffff;dashed=0;verticalLabelPosition=bottom;verticalAlign=top;align=center;html=1;fontSize=12;fontStyle=0;aspect=fixed;shape=mxgraph.aws4.resourceIcon;resIcon=mxgraph.aws4.ec2;" vertex="1" parent="CtNg6Ad5vOaN8CQnMdeP-9">
          <mxGeometry x="65" y="80.5" width="39" height="39" as="geometry" />
        </mxCell>
        <mxCell id="CtNg6Ad5vOaN8CQnMdeP-22" value="Test Server 1" style="text;html=1;resizable=0;autosize=1;align=center;verticalAlign=middle;points=[];fillColor=none;strokeColor=none;rounded=0;" vertex="1" parent="CtNg6Ad5vOaN8CQnMdeP-9">
          <mxGeometry x="39" y="119.5" width="90" height="20" as="geometry" />
        </mxCell>
        <mxCell id="CtNg6Ad5vOaN8CQnMdeP-37" value="CIDR:10.1.240.0/20" style="text;html=1;resizable=0;autosize=1;align=center;verticalAlign=middle;points=[];fillColor=none;strokeColor=none;rounded=0;" vertex="1" parent="CtNg6Ad5vOaN8CQnMdeP-9">
          <mxGeometry x="24.5" y="20" width="120" height="20" as="geometry" />
        </mxCell>
        <mxCell id="CtNg6Ad5vOaN8CQnMdeP-15" value="" style="edgeStyle=orthogonalEdgeStyle;html=1;endArrow=none;elbow=vertical;startArrow=openThin;startFill=0;strokeColor=#545B64;rounded=0;entryX=0.5;entryY=1;entryDx=0;entryDy=0;entryPerimeter=0;" edge="1" parent="CtNg6Ad5vOaN8CQnMdeP-6" source="CtNg6Ad5vOaN8CQnMdeP-9" target="CtNg6Ad5vOaN8CQnMdeP-13">
          <mxGeometry width="100" relative="1" as="geometry">
            <mxPoint x="180" y="70" as="sourcePoint" />
            <mxPoint x="280" y="70" as="targetPoint" />
          </mxGeometry>
        </mxCell>
        <mxCell id="CtNg6Ad5vOaN8CQnMdeP-33" value="CIDR:10.1.0.0/16" style="text;html=1;resizable=0;autosize=1;align=center;verticalAlign=middle;points=[];fillColor=none;strokeColor=none;rounded=0;" vertex="1" parent="CtNg6Ad5vOaN8CQnMdeP-6">
          <mxGeometry x="20" y="20" width="110" height="20" as="geometry" />
        </mxCell>
        <mxCell id="CtNg6Ad5vOaN8CQnMdeP-7" value="VPC" style="points=[[0,0],[0.25,0],[0.5,0],[0.75,0],[1,0],[1,0.25],[1,0.5],[1,0.75],[1,1],[0.75,1],[0.5,1],[0.25,1],[0,1],[0,0.75],[0,0.5],[0,0.25]];outlineConnect=0;gradientColor=none;html=1;whiteSpace=wrap;fontSize=12;fontStyle=0;container=1;pointerEvents=0;collapsible=0;recursiveResize=0;shape=mxgraph.aws4.group;grIcon=mxgraph.aws4.group_vpc;strokeColor=#248814;fillColor=none;verticalAlign=top;align=left;spacingLeft=30;fontColor=#AAB7B8;dashed=0;" vertex="1" parent="CtNg6Ad5vOaN8CQnMdeP-5">
          <mxGeometry x="440" y="40" width="230" height="480" as="geometry" />
        </mxCell>
        <mxCell id="CtNg6Ad5vOaN8CQnMdeP-10" value="Public subnet" style="points=[[0,0],[0.25,0],[0.5,0],[0.75,0],[1,0],[1,0.25],[1,0.5],[1,0.75],[1,1],[0.75,1],[0.5,1],[0.25,1],[0,1],[0,0.75],[0,0.5],[0,0.25]];outlineConnect=0;gradientColor=none;html=1;whiteSpace=wrap;fontSize=12;fontStyle=0;container=1;pointerEvents=0;collapsible=0;recursiveResize=0;shape=mxgraph.aws4.group;grIcon=mxgraph.aws4.group_security_group;grStroke=0;strokeColor=#248814;fillColor=#E9F3E6;verticalAlign=top;align=left;spacingLeft=30;fontColor=#248814;dashed=0;" vertex="1" parent="CtNg6Ad5vOaN8CQnMdeP-7">
          <mxGeometry x="15" y="40" width="200" height="180" as="geometry" />
        </mxCell>
        <mxCell id="CtNg6Ad5vOaN8CQnMdeP-14" value="" style="sketch=0;points=[[0,0,0],[0.25,0,0],[0.5,0,0],[0.75,0,0],[1,0,0],[0,1,0],[0.25,1,0],[0.5,1,0],[0.75,1,0],[1,1,0],[0,0.25,0],[0,0.5,0],[0,0.75,0],[1,0.25,0],[1,0.5,0],[1,0.75,0]];outlineConnect=0;fontColor=#232F3E;gradientColor=#F78E04;gradientDirection=north;fillColor=#D05C17;strokeColor=#ffffff;dashed=0;verticalLabelPosition=bottom;verticalAlign=top;align=center;html=1;fontSize=12;fontStyle=0;aspect=fixed;shape=mxgraph.aws4.resourceIcon;resIcon=mxgraph.aws4.compute;" vertex="1" parent="CtNg6Ad5vOaN8CQnMdeP-10">
          <mxGeometry x="130" y="80" width="40" height="40" as="geometry" />
        </mxCell>
        <mxCell id="CtNg6Ad5vOaN8CQnMdeP-19" value="&lt;font style=&quot;vertical-align: inherit&quot;&gt;&lt;font style=&quot;vertical-align: inherit&quot;&gt;&lt;font style=&quot;vertical-align: inherit&quot;&gt;&lt;font style=&quot;vertical-align: inherit&quot;&gt;&lt;font style=&quot;vertical-align: inherit&quot;&gt;&lt;font style=&quot;vertical-align: inherit&quot;&gt;VPN Server 2&lt;/font&gt;&lt;/font&gt;&lt;/font&gt;&lt;/font&gt;&lt;/font&gt;&lt;/font&gt;" style="text;html=1;resizable=0;autosize=1;align=center;verticalAlign=middle;points=[];fillColor=none;strokeColor=none;rounded=0;" vertex="1" parent="CtNg6Ad5vOaN8CQnMdeP-10">
          <mxGeometry x="105" y="60" width="90" height="20" as="geometry" />
        </mxCell>
        <mxCell id="CtNg6Ad5vOaN8CQnMdeP-28" value="" style="sketch=0;outlineConnect=0;fontColor=#232F3E;gradientColor=none;fillColor=#4D27AA;strokeColor=none;dashed=0;verticalLabelPosition=bottom;verticalAlign=top;align=center;html=1;fontSize=12;fontStyle=0;aspect=fixed;pointerEvents=1;shape=mxgraph.aws4.route_table;" vertex="1" parent="CtNg6Ad5vOaN8CQnMdeP-10">
          <mxGeometry x="15" y="100" width="51.33" height="50" as="geometry" />
        </mxCell>
        <mxCell id="CtNg6Ad5vOaN8CQnMdeP-29" value="&lt;font style=&quot;vertical-align: inherit&quot;&gt;&lt;font style=&quot;vertical-align: inherit&quot;&gt;&lt;font style=&quot;vertical-align: inherit&quot;&gt;&lt;font style=&quot;vertical-align: inherit&quot;&gt;RouteTable2&lt;/font&gt;&lt;/font&gt;&lt;/font&gt;&lt;/font&gt;" style="text;html=1;resizable=0;autosize=1;align=center;verticalAlign=middle;points=[];fillColor=none;strokeColor=none;rounded=0;" vertex="1" parent="CtNg6Ad5vOaN8CQnMdeP-10">
          <mxGeometry x="0.6600000000000819" y="150" width="80" height="20" as="geometry" />
        </mxCell>
        <mxCell id="CtNg6Ad5vOaN8CQnMdeP-32" value="" style="edgeStyle=orthogonalEdgeStyle;html=1;endArrow=none;elbow=vertical;startArrow=openThin;startFill=0;strokeColor=#545B64;rounded=0;entryX=0;entryY=0.5;entryDx=0;entryDy=0;entryPerimeter=0;" edge="1" parent="CtNg6Ad5vOaN8CQnMdeP-10" source="CtNg6Ad5vOaN8CQnMdeP-28" target="CtNg6Ad5vOaN8CQnMdeP-14">
          <mxGeometry width="100" relative="1" as="geometry">
            <mxPoint x="-245" y="30" as="sourcePoint" />
            <mxPoint x="-145" y="30" as="targetPoint" />
          </mxGeometry>
        </mxCell>
        <mxCell id="CtNg6Ad5vOaN8CQnMdeP-36" value="CIDR:10.2.0.0/20" style="text;html=1;resizable=0;autosize=1;align=center;verticalAlign=middle;points=[];fillColor=none;strokeColor=none;rounded=0;" vertex="1" parent="CtNg6Ad5vOaN8CQnMdeP-10">
          <mxGeometry x="25" y="20" width="110" height="20" as="geometry" />
        </mxCell>
        <mxCell id="CtNg6Ad5vOaN8CQnMdeP-11" value="Private subnet" style="points=[[0,0],[0.25,0],[0.5,0],[0.75,0],[1,0],[1,0.25],[1,0.5],[1,0.75],[1,1],[0.75,1],[0.5,1],[0.25,1],[0,1],[0,0.75],[0,0.5],[0,0.25]];outlineConnect=0;gradientColor=none;html=1;whiteSpace=wrap;fontSize=12;fontStyle=0;container=1;pointerEvents=0;collapsible=0;recursiveResize=0;shape=mxgraph.aws4.group;grIcon=mxgraph.aws4.group_security_group;grStroke=0;strokeColor=#147EBA;fillColor=#E6F2F8;verticalAlign=top;align=left;spacingLeft=30;fontColor=#147EBA;dashed=0;" vertex="1" parent="CtNg6Ad5vOaN8CQnMdeP-7">
          <mxGeometry x="15" y="240" width="205" height="200" as="geometry" />
        </mxCell>
        <mxCell id="CtNg6Ad5vOaN8CQnMdeP-21" value="" style="sketch=0;points=[[0,0,0],[0.25,0,0],[0.5,0,0],[0.75,0,0],[1,0,0],[0,1,0],[0.25,1,0],[0.5,1,0],[0.75,1,0],[1,1,0],[0,0.25,0],[0,0.5,0],[0,0.75,0],[1,0.25,0],[1,0.5,0],[1,0.75,0]];outlineConnect=0;fontColor=#232F3E;gradientColor=#F78E04;gradientDirection=north;fillColor=#D05C17;strokeColor=#ffffff;dashed=0;verticalLabelPosition=bottom;verticalAlign=top;align=center;html=1;fontSize=12;fontStyle=0;aspect=fixed;shape=mxgraph.aws4.resourceIcon;resIcon=mxgraph.aws4.ec2;" vertex="1" parent="CtNg6Ad5vOaN8CQnMdeP-11">
          <mxGeometry x="83" y="80.5" width="39" height="39" as="geometry" />
        </mxCell>
        <mxCell id="CtNg6Ad5vOaN8CQnMdeP-23" value="Test Server 2" style="text;html=1;resizable=0;autosize=1;align=center;verticalAlign=middle;points=[];fillColor=none;strokeColor=none;rounded=0;" vertex="1" parent="CtNg6Ad5vOaN8CQnMdeP-11">
          <mxGeometry x="57.5" y="119.5" width="90" height="20" as="geometry" />
        </mxCell>
        <mxCell id="CtNg6Ad5vOaN8CQnMdeP-38" value="CIDR:10.2.240.0/20" style="text;html=1;resizable=0;autosize=1;align=center;verticalAlign=middle;points=[];fillColor=none;strokeColor=none;rounded=0;" vertex="1" parent="CtNg6Ad5vOaN8CQnMdeP-11">
          <mxGeometry x="25" y="20" width="120" height="20" as="geometry" />
        </mxCell>
        <mxCell id="CtNg6Ad5vOaN8CQnMdeP-16" value="" style="edgeStyle=orthogonalEdgeStyle;html=1;endArrow=none;elbow=vertical;startArrow=openThin;startFill=0;strokeColor=#545B64;rounded=0;entryX=0.5;entryY=1;entryDx=0;entryDy=0;entryPerimeter=0;" edge="1" parent="CtNg6Ad5vOaN8CQnMdeP-7" source="CtNg6Ad5vOaN8CQnMdeP-11" target="CtNg6Ad5vOaN8CQnMdeP-14">
          <mxGeometry width="100" relative="1" as="geometry">
            <mxPoint x="-282.47368421052624" y="250" as="sourcePoint" />
            <mxPoint x="-295" y="160" as="targetPoint" />
          </mxGeometry>
        </mxCell>
        <mxCell id="CtNg6Ad5vOaN8CQnMdeP-34" value="CIDR:10.2.0.0/16" style="text;html=1;resizable=0;autosize=1;align=center;verticalAlign=middle;points=[];fillColor=none;strokeColor=none;rounded=0;" vertex="1" parent="CtNg6Ad5vOaN8CQnMdeP-7">
          <mxGeometry x="20" y="20" width="110" height="20" as="geometry" />
        </mxCell>
        <mxCell id="CtNg6Ad5vOaN8CQnMdeP-30" value="" style="edgeStyle=orthogonalEdgeStyle;html=1;endArrow=block;elbow=vertical;startArrow=block;startFill=1;endFill=1;strokeColor=#545B64;rounded=0;" edge="1" parent="CtNg6Ad5vOaN8CQnMdeP-5" source="CtNg6Ad5vOaN8CQnMdeP-24" target="CtNg6Ad5vOaN8CQnMdeP-28">
          <mxGeometry width="100" relative="1" as="geometry">
            <mxPoint x="210" y="110" as="sourcePoint" />
            <mxPoint x="310" y="110" as="targetPoint" />
          </mxGeometry>
        </mxCell>
        <mxCell id="CtNg6Ad5vOaN8CQnMdeP-25" value="&lt;font style=&quot;vertical-align: inherit&quot;&gt;&lt;font style=&quot;vertical-align: inherit&quot;&gt;l&lt;/font&gt;&lt;/font&gt;" style="text;html=1;resizable=0;autosize=1;align=center;verticalAlign=middle;points=[];fillColor=none;strokeColor=none;rounded=0;" vertex="1" parent="1">
          <mxGeometry x="310" y="360" width="20" height="20" as="geometry" />
        </mxCell>
      </root>
    </mxGraphModel>
  </diagram>
</mxfile>
